HIERARCHY
ROOT Hips
{
	OFFSET 0.000000 71.427986 0.000000
	CHANNELS 6 Xposition Yposition Zposition Xrotation Yrotation Zrotation
	JOINT Pelvis
	{
		OFFSET 0.000000 0.000000 0.000000
		CHANNELS 3 Xrotation Yrotation Zrotation
		JOINT LeftUpLeg
		{
			OFFSET 6.797100 -2.508499 -1.318700
			CHANNELS 3 Xrotation Yrotation Zrotation
			JOINT LeftLeg
			{
				OFFSET 0.069008 -29.241863 0.690200
				CHANNELS 3 Xrotation Yrotation Zrotation
				JOINT LeftFoot
				{
					OFFSET -0.069008 -29.568123 -0.266800
					CHANNELS 3 Xrotation Yrotation Zrotation
					JOINT LeftToeBase
					{
						OFFSET 3.145500 -8.631000 16.059900
						CHANNELS 3 Xrotation Yrotation Zrotation
						End Site
						{
							OFFSET 0.000000 18.501587 0.000000
						}
					}
				}
			}
			JOINT Left_ShortSleeve
			{
				OFFSET 0.265923 -10.480953 1.153800
				CHANNELS 3 Xrotation Yrotation Zrotation
				End Site
				{
					OFFSET 1.725763 19.823879 0.000000
				}
			}
		}
		JOINT RightUpLeg
		{
			OFFSET -6.797100 -2.508499 -1.318700
			CHANNELS 3 Xrotation Yrotation Zrotation
			JOINT RightLeg
			{
				OFFSET -0.082453 -29.241932 0.688000
				CHANNELS 3 Xrotation Yrotation Zrotation
				JOINT RightFoot
				{
					OFFSET 0.082453 -29.568058 -0.264600
					CHANNELS 3 Xrotation Yrotation Zrotation
					JOINT RightToeBase
					{
						OFFSET -3.115300 -8.682800 16.113400
						CHANNELS 3 Xrotation Yrotation Zrotation
						End Site
						{
							OFFSET 0.000000 18.567114 0.000000
						}
					}
				}
			}
			JOINT Right_ShortSleeve
			{
				OFFSET -0.265923 -10.480953 1.153800
				CHANNELS 3 Xrotation Yrotation Zrotation
				End Site
				{
					OFFSET -1.725766 19.823910 0.000000
				}
			}
		}
	}
	JOINT Spine
	{
		OFFSET 0.000000 13.368103 0.470500
		CHANNELS 3 Xrotation Yrotation Zrotation
		JOINT Spine1
		{
			OFFSET 0.147000 13.837402 0.538800
			CHANNELS 3 Xrotation Yrotation Zrotation
			JOINT Spine2
			{
				OFFSET 0.168000 16.242897 -1.435500
				CHANNELS 3 Xrotation Yrotation Zrotation
				JOINT Neck
				{
					OFFSET 0.217200 18.631500 -1.679100
					CHANNELS 3 Xrotation Yrotation Zrotation
					JOINT Head
					{
						OFFSET 0.000000 6.599396 1.385900
						CHANNELS 3 Xrotation Yrotation Zrotation
						JOINT Hat
						{
							OFFSET -0.532200 27.220596 -10.096100
							CHANNELS 3 Xrotation Yrotation Zrotation
							End Site
							{
								OFFSET 0.000000 22.029861 0.000000
							}
						}
						JOINT HairD
						{
							OFFSET -10.777400 17.437393 -1.325900
							CHANNELS 3 Xrotation Yrotation Zrotation
							JOINT HairD1
							{
								OFFSET -3.290299 -11.051193 1.062200
								CHANNELS 3 Xrotation Yrotation Zrotation
								End Site
								{
									OFFSET 0.000000 11.579437 0.000000
								}
							}
						}
						JOINT HairB
						{
							OFFSET -10.777400 17.437393 1.467900
							CHANNELS 3 Xrotation Yrotation Zrotation
							JOINT HairB1
							{
								OFFSET -1.561200 -12.956299 3.590200
								CHANNELS 3 Xrotation Yrotation Zrotation
								End Site
								{
									OFFSET 0.000000 13.534866 0.000000
								}
							}
						}
						JOINT HairA
						{
							OFFSET 9.713100 17.437393 1.467900
							CHANNELS 3 Xrotation Yrotation Zrotation
							JOINT HairA1
							{
								OFFSET 1.561200 -12.956299 3.590200
								CHANNELS 3 Xrotation Yrotation Zrotation
								End Site
								{
									OFFSET 0.000000 13.534866 0.000000
								}
							}
						}
						JOINT HairC
						{
							OFFSET 9.713100 17.437393 -1.325900
							CHANNELS 3 Xrotation Yrotation Zrotation
							JOINT HairC1
							{
								OFFSET 3.290300 -11.051193 1.062200
								CHANNELS 3 Xrotation Yrotation Zrotation
								End Site
								{
									OFFSET 0.000000 11.579437 0.000000
								}
							}
						}
					}
				}
				JOINT LeftShoulder
				{
					OFFSET 5.101800 15.108002 -2.763700
					CHANNELS 3 Xrotation Yrotation Zrotation
					JOINT LeftArm
					{
						OFFSET 9.825497 2.506317 -1.597400
						CHANNELS 3 Xrotation Yrotation Zrotation
						JOINT LeftForeArm
						{
							OFFSET 21.966244 0.000000 0.000000
							CHANNELS 3 Xrotation Yrotation Zrotation
							JOINT LeftHand
							{
								OFFSET 33.879036 0.000000 0.000000
								CHANNELS 3 Xrotation Yrotation Zrotation
								JOINT LeftHandThumb1
								{
									OFFSET 6.715286 -2.359680 3.363841
									CHANNELS 3 Xrotation Yrotation Zrotation
									JOINT LeftHandThumb2
									{
										OFFSET 2.507072 -1.447464 1.447461
										CHANNELS 3 Xrotation Yrotation Zrotation
										JOINT LeftHandThumb3
										{
											OFFSET 2.898338 -1.673355 1.673357
											CHANNELS 3 Xrotation Yrotation Zrotation
											End Site
											{
												OFFSET -0.295959 3.727692 -0.131651
											}
										}
									}
								}
								JOINT LeftHandIndex1
								{
									OFFSET 14.190811 -0.254547 3.840278
									CHANNELS 3 Xrotation Yrotation Zrotation
									JOINT LeftHandIndex2
									{
										OFFSET 3.551727 0.000000 -0.000000
										CHANNELS 3 Xrotation Yrotation Zrotation
										JOINT LeftHandIndex3
										{
											OFFSET 2.894196 0.000000 0.000000
											CHANNELS 3 Xrotation Yrotation Zrotation
											End Site
											{
												OFFSET -1.000603 2.690872 0.366626
											}
										}
									}
								}
								JOINT LeftHandMiddle1
								{
									OFFSET 13.776489 0.000000 0.000000
									CHANNELS 3 Xrotation Yrotation Zrotation
									JOINT LeftHandMiddle2
									{
										OFFSET 3.438232 0.000000 0.000000
										CHANNELS 3 Xrotation Yrotation Zrotation
										JOINT LeftHandMiddle3
										{
											OFFSET 3.691551 0.000000 0.000000
											CHANNELS 3 Xrotation Yrotation Zrotation
											End Site
											{
												OFFSET -1.082298 3.499527 0.457670
											}
										}
									}
								}
								JOINT LeftHandRing1
								{
									OFFSET 13.966164 -0.268127 -3.067488
									CHANNELS 3 Xrotation Yrotation Zrotation
									JOINT LeftHandRing2
									{
										OFFSET 3.162567 0.000000 0.000000
										CHANNELS 3 Xrotation Yrotation Zrotation
										JOINT LeftHandRing3
										{
											OFFSET 3.324348 0.000000 0.000000
											CHANNELS 3 Xrotation Yrotation Zrotation
											End Site
											{
												OFFSET -0.861900 3.184998 0.405154
											}
										}
									}
								}
								JOINT LeftHandPinky1
								{
									OFFSET 13.131393 -0.168503 -5.746925
									CHANNELS 3 Xrotation Yrotation Zrotation
									JOINT LeftHandPinky2
									{
										OFFSET 2.849182 0.000000 0.000000
										CHANNELS 3 Xrotation Yrotation Zrotation
										JOINT LeftHandPinky3
										{
											OFFSET 2.805038 0.000000 0.000000
											CHANNELS 3 Xrotation Yrotation Zrotation
											End Site
											{
												OFFSET -0.882500 2.642609 0.325652
											}
										}
									}
								}
							}
							JOINT Left_Sleeve
							{
								OFFSET 6.592125 -0.646545 0.805568
								CHANNELS 3 Xrotation Yrotation Zrotation
								End Site
								{
									OFFSET -0.000179 20.275787 -0.000000
								}
							}
						}
					}
				}
				JOINT RightShoulder
				{
					OFFSET -5.731700 15.108002 -2.763700
					CHANNELS 3 Xrotation Yrotation Zrotation
					JOINT RightArm
					{
						OFFSET -9.825497 2.506317 -1.597400
						CHANNELS 3 Xrotation Yrotation Zrotation
						JOINT RightForeArm
						{
							OFFSET -21.966242 0.000000 0.000000
							CHANNELS 3 Xrotation Yrotation Zrotation
							JOINT RightHand
							{
								OFFSET -33.879032 0.000000 0.000000
								CHANNELS 3 Xrotation Yrotation Zrotation
								JOINT RightHandThumb1
								{
									OFFSET -6.715286 -2.359680 3.363841
									CHANNELS 3 Xrotation Yrotation Zrotation
									JOINT RightHandThumb2
									{
										OFFSET -2.507072 -1.447464 1.447461
										CHANNELS 3 Xrotation Yrotation Zrotation
										JOINT RightHandThumb3
										{
											OFFSET -2.898338 -1.673355 1.673357
											CHANNELS 3 Xrotation Yrotation Zrotation
											End Site
											{
												OFFSET 0.295959 3.727692 -0.131651
											}
										}
									}
								}
								JOINT RightHandIndex1
								{
									OFFSET -14.190811 -0.254547 3.840278
									CHANNELS 3 Xrotation Yrotation Zrotation
									JOINT RightHandIndex2
									{
										OFFSET -3.551727 0.000000 -0.000000
										CHANNELS 3 Xrotation Yrotation Zrotation
										JOINT RightHandIndex3
										{
											OFFSET -2.894196 0.000000 0.000000
											CHANNELS 3 Xrotation Yrotation Zrotation
											End Site
											{
												OFFSET 1.000603 2.690872 0.366626
											}
										}
									}
								}
								JOINT RightHandMiddle1
								{
									OFFSET -13.776489 0.000000 0.000000
									CHANNELS 3 Xrotation Yrotation Zrotation
									JOINT RightHandMiddle2
									{
										OFFSET -3.438232 0.000000 0.000000
										CHANNELS 3 Xrotation Yrotation Zrotation
										JOINT RightHandMiddle3
										{
											OFFSET -3.691551 0.000000 0.000000
											CHANNELS 3 Xrotation Yrotation Zrotation
											End Site
											{
												OFFSET 1.082298 3.499527 0.457670
											}
										}
									}
								}
								JOINT RightHandRing1
								{
									OFFSET -13.966164 -0.268127 -3.067488
									CHANNELS 3 Xrotation Yrotation Zrotation
									JOINT RightHandRing2
									{
										OFFSET -3.162567 0.000000 0.000000
										CHANNELS 3 Xrotation Yrotation Zrotation
										JOINT RightHandRing3
										{
											OFFSET -3.324348 0.000000 0.000000
											CHANNELS 3 Xrotation Yrotation Zrotation
											End Site
											{
												OFFSET 0.861900 3.184998 0.405154
											}
										}
									}
								}
								JOINT RightHandPinky1
								{
									OFFSET -13.131393 -0.168503 -5.746925
									CHANNELS 3 Xrotation Yrotation Zrotation
									JOINT RightHandPinky2
									{
										OFFSET -2.849182 0.000000 0.000000
										CHANNELS 3 Xrotation Yrotation Zrotation
										JOINT RightHandPinky3
										{
											OFFSET -2.805038 0.000000 0.000000
											CHANNELS 3 Xrotation Yrotation Zrotation
											End Site
											{
												OFFSET 0.882500 2.642609 0.325652
											}
										}
									}
								}
							}
							JOINT Right_Sleeve
							{
								OFFSET -6.592125 -0.646545 0.805568
								CHANNELS 3 Xrotation Yrotation Zrotation
								End Site
								{
									OFFSET 0.000179 20.275787 -0.000000
								}
							}
						}
					}
				}
				JOINT Bind_Right_JacketString
				{
					OFFSET -3.534800 11.969597 7.200700
					CHANNELS 3 Xrotation Yrotation Zrotation
					JOINT Bind_Right_JacketString1
					{
						OFFSET -0.319900 -6.102600 2.794100
						CHANNELS 3 Xrotation Yrotation Zrotation
						End Site
						{
							OFFSET 0.000000 6.719452 0.000000
						}
					}
				}
				JOINT Bind_Left_JacketString
				{
					OFFSET 2.904800 11.969597 7.200700
					CHANNELS 3 Xrotation Yrotation Zrotation
					JOINT Bind_Left_JacketString1
					{
						OFFSET 0.364800 -5.904503 3.186800
						CHANNELS 3 Xrotation Yrotation Zrotation
						End Site
						{
							OFFSET 0.000000 6.719513 0.000000
						}
					}
				}
				JOINT HairE
				{
					OFFSET 5.915200 17.612701 -11.592200
					CHANNELS 3 Xrotation Yrotation Zrotation
					JOINT HairE1
					{
						OFFSET 0.289200 -7.171898 -1.284500
						CHANNELS 3 Xrotation Yrotation Zrotation
						End Site
						{
							OFFSET 0.000000 7.291756 0.000000
						}
					}
				}
				JOINT HairF
				{
					OFFSET -0.864800 17.612701 -11.592200
					CHANNELS 3 Xrotation Yrotation Zrotation
					JOINT HairF1
					{
						OFFSET 0.000000 -14.087097 -2.127501
						CHANNELS 3 Xrotation Yrotation Zrotation
						End Site
						{
							OFFSET 0.000000 14.246841 0.000000
						}
					}
				}
				JOINT HairG
				{
					OFFSET -8.087700 17.612701 -11.592200
					CHANNELS 3 Xrotation Yrotation Zrotation
					JOINT HairG1
					{
						OFFSET -0.293600 -6.081398 -0.910100
						CHANNELS 3 Xrotation Yrotation Zrotation
						End Site
						{
							OFFSET 0.000000 6.156120 0.000000
						}
					}
				}
			}
		}
	}
	JOINT Pouch
	{
		OFFSET 0.000000 4.394501 10.847300
		CHANNELS 3 Xrotation Yrotation Zrotation
		End Site
		{
			OFFSET 0.000000 21.880577 0.000000
		}
	}
	JOINT Bag
	{
		OFFSET -13.229000 4.813004 -0.593300
		CHANNELS 3 Xrotation Yrotation Zrotation
		End Site
		{
			OFFSET 0.000000 21.880577 0.000000
		}
	}
	JOINT OccupyGuyFacialAnim_Joint
	{
		OFFSET 1.000000 -70.206398 -1.655000
		CHANNELS 3 Xrotation Yrotation Zrotation
		End Site
		{
			OFFSET 0.000000 21.880577 0.000000
		}
	}
}
MOTION
Frames: 4
Frame Time: 0.016667
-0.354202 64.616936 0.896667 -0.669610 -15.836045 -1.625984 -0.000000 -0.000000 -0.000000 -33.148284 18.179887 13.084540 51.172303 3.808541 10.219149 -19.780621 1.942563 -10.664091 -0.000000 0.000000 0.000000 0.000001 -0.000000 -0.000000 -29.128879 -21.993368 -9.719705 50.886678 -3.535787 -10.230399 -22.820441 -2.410362 10.014003 0.000000 0.000003 0.000000 -0.000003 -0.000001 0.000001 3.772329 1.244719 0.216633 2.523602 1.177440 -0.059023 2.503913 1.224026 -0.090937 0.457846 0.824228 4.848789 8.545300 11.130796 -0.783158 0.000002 -0.000000 -0.000000 0.000002 -0.000000 -0.000000 0.000002 -0.000000 -0.000000 0.000002 -0.000000 -0.000000 0.000002 -0.000000 -0.000000 0.000002 -0.000000 -0.000000 0.000002 -0.000000 -0.000000 0.000002 -0.000000 -0.000000 0.000002 -0.000000 -0.000000 0.513444 1.082365 14.986775 -49.547452 -53.697188 -56.631984 0.000005 -52.589523 0.000008 -101.282539 -0.136467 2.488743 35.234555 -17.219554 -17.236899 29.406850 28.726515 -29.411799 0.000003 -0.000000 0.000002 0.797680 3.221921 -27.804756 0.799601 3.225517 -27.838623 0.000000 0.000001 -0.000002 0.796773 3.220223 -27.788731 0.800505 3.227230 -27.854650 -0.000001 0.000003 0.000001 0.797689 3.221894 -27.804752 0.799595 3.225530 -27.838620 0.000002 -0.000001 -0.000001 2.684960 6.814119 -27.459497 0.809054 -0.835566 -28.291870 -0.000002 0.000000 0.000001 0.000000 0.000002 0.000001 0.384721 -1.325533 -0.769391 3.865902 95.192121 -10.302279 0.000000 25.659960 0.000000 -50.084261 -3.447569 -9.781607 40.606643 -3.110580 26.124248 -37.849486 -44.265015 -46.874956 -0.000000 -0.000001 -0.000000 3.635334 -6.111027 61.464490 7.728591 -6.904454 96.464449 -0.000004 0.000001 -0.000001 3.635331 -6.111021 61.464490 7.728616 -6.904472 96.464462 0.000003 0.000000 -0.000001 3.635324 -6.110978 61.464490 7.728631 -6.904482 96.464469 0.000002 0.000001 -0.000001 3.635323 -6.111021 61.464504 7.728632 -6.904479 96.464469 0.000001 0.000001 0.000001 0.000000 0.000002 0.000000 -0.000001 -0.000001 0.000000 -0.000000 0.000000 -0.000000 -0.000001 -0.000001 0.000000 -0.000001 -0.000001 0.000000 -0.000001 -0.000001 0.000000 -0.000000 0.000000 -0.000000 -0.000001 -0.000001 0.000000 -0.000001 -0.000001 0.000000 -0.000001 -0.000001 0.000000 -0.000000 0.000000 -0.000000 -0.000000 -0.000000 -0.000000 -0.000000 -0.000000 -0.000000 -0.000000 -0.000000 -0.000000 
-0.324062 64.598045 0.914554 -0.673368 -15.783959 -1.614185 0.000000 0.000002 0.000000 -33.151778 18.107441 13.000539 51.258121 3.863728 10.218345 -19.837839 1.952577 -10.655834 0.000000 -0.000000 -0.000000 0.000000 0.000000 0.000000 -29.228210 -22.176851 -9.909552 50.990210 -3.377307 -10.229003 -22.875477 -2.373813 9.979587 0.000000 0.000003 0.000000 0.000001 -0.000001 -0.000002 3.764076 1.224902 0.262241 2.514744 1.164373 -0.024040 2.495213 1.211956 -0.055855 0.444800 0.831757 4.833577 8.560006 11.165286 -0.906731 0.000002 0.000000 -0.000000 0.000002 0.000000 -0.000000 0.000002 0.000000 -0.000000 0.000002 0.000000 -0.000000 -0.000000 0.000000 -0.000000 0.000002 0.000000 -0.000000 -0.000000 0.000000 -0.000000 0.000002 0.000000 -0.000000 0.000002 0.000000 -0.000000 0.748157 0.781684 15.125087 -49.125927 -53.329912 -56.178907 0.000008 -52.952483 0.000004 -101.491277 -0.073168 2.700965 35.234555 -17.219551 -17.236896 29.406850 28.726512 -29.411802 0.000001 -0.000003 -0.000001 0.797679 3.221919 -27.804752 0.799604 3.225518 -27.838623 -0.000002 0.000001 -0.000000 0.796775 3.220224 -27.788725 0.800505 3.227232 -27.854654 0.000002 0.000001 -0.000001 0.797686 3.221895 -27.804749 0.799597 3.225531 -27.838625 0.000001 -0.000004 -0.000000 2.684961 6.814121 -27.459498 0.809053 -0.835566 -28.291870 0.000001 0.000002 0.000001 0.000000 -0.000003 -0.000001 0.387290 -1.315634 -0.755623 4.637004 95.148654 -10.970009 -0.000000 25.704891 0.000000 -50.030306 -3.689111 -9.647768 40.606632 -3.110581 26.124244 -37.849480 -44.265018 -46.874956 -0.000001 -0.000004 0.000000 3.635330 -6.111026 61.464497 7.728589 -6.904456 96.464449 -0.000008 -0.000001 0.000004 3.635331 -6.111021 61.464490 7.728616 -6.904466 96.464456 0.000001 0.000001 0.000003 3.635309 -6.110979 61.464490 7.728631 -6.904479 96.464462 0.000002 -0.000001 0.000000 3.635326 -6.111022 61.464504 7.728637 -6.904483 96.464469 0.000003 -0.000000 0.000002 0.000000 -0.000002 -0.000000 -0.000000 0.000001 0.000000 -0.000000 0.000001 -0.000000 -0.000000 0.000001 0.000000 -0.000000 0.000001 0.000000 -0.000000 0.000001 0.000000 -0.000000 0.000001 -0.000000 -0.000000 0.000001 0.000000 -0.000000 0.000001 0.000000 -0.000000 0.000001 0.000000 -0.000000 0.000001 -0.000000 0.000000 0.000002 0.000000 0.000000 0.000002 0.000000 0.000000 0.000002 0.000000 
-0.287629 64.576653 0.936267 -0.691435 -15.728230 -1.605716 -0.000000 -0.000000 -0.000000 -33.133914 18.005320 12.892185 51.354140 3.950169 10.217388 -19.904230 1.969069 -10.655952 -0.000000 0.000000 0.000000 -0.000001 0.000000 -0.000000 -29.325038 -22.373635 -10.121301 51.105996 -3.202173 -10.227460 -22.936170 -2.335066 9.945625 0.000000 -0.000000 0.000000 0.000001 -0.000001 -0.000001 3.763586 1.208178 0.315699 2.511990 1.154432 0.015426 2.492557 1.203284 -0.016408 0.427323 0.835597 4.813935 8.559332 11.171116 -1.001661 0.000001 -0.000000 -0.000000 0.000001 -0.000000 -0.000000 0.000001 -0.000000 -0.000000 0.000001 -0.000000 -0.000000 -0.000000 -0.000000 0.000000 0.000001 -0.000000 -0.000000 -0.000000 -0.000000 0.000000 0.000001 -0.000000 -0.000000 0.000001 -0.000000 -0.000000 0.696103 0.770072 15.279768 -49.162858 -53.221534 -56.426092 0.000006 -52.964722 0.000007 -101.561559 0.130794 2.653117 35.234555 -17.219559 -17.236901 29.406854 28.726512 -29.411805 -0.000002 0.000002 0.000002 0.797680 3.221923 -27.804756 0.799603 3.225519 -27.838625 0.000002 0.000000 -0.000002 0.796774 3.220222 -27.788734 0.800507 3.227230 -27.854649 -0.000001 -0.000001 0.000001 0.797689 3.221893 -27.804756 0.799598 3.225531 -27.838625 -0.000002 -0.000001 0.000001 2.684964 6.814120 -27.459497 0.809054 -0.835568 -28.291870 -0.000002 -0.000000 0.000001 0.000001 0.000005 0.000001 0.383951 -1.340513 -0.713610 5.054994 95.126305 -11.279614 0.000000 25.763183 0.000000 -50.049447 -3.937749 -9.643285 40.606643 -3.110579 26.124248 -37.849483 -44.265018 -46.874953 -0.000000 -0.000002 0.000001 3.635338 -6.111026 61.464497 7.728590 -6.904453 96.464456 -0.000003 -0.000004 0.000001 3.635334 -6.111019 61.464490 7.728616 -6.904471 96.464462 0.000002 0.000003 -0.000002 3.635324 -6.110978 61.464497 7.728631 -6.904478 96.464462 -0.000003 0.000001 -0.000002 3.635335 -6.111021 61.464504 7.728633 -6.904480 96.464462 -0.000004 0.000002 0.000001 0.000000 0.000002 0.000000 -0.000000 0.000001 -0.000000 0.000001 0.000000 -0.000000 -0.000000 0.000001 -0.000000 -0.000000 0.000001 -0.000000 -0.000000 0.000001 -0.000000 0.000001 0.000000 -0.000000 -0.000000 0.000001 -0.000000 -0.000000 0.000001 -0.000000 -0.000000 0.000001 -0.000000 0.000001 0.000000 -0.000000 -0.000000 -0.000000 -0.000000 -0.000000 -0.000000 -0.000000 -0.000000 -0.000000 -0.000000 
-0.241075 64.553368 0.961892 -0.725947 -15.680405 -1.597587 -0.000000 0.000001 0.000000 -33.090979 17.886445 12.757918 51.457849 4.072268 10.216354 -19.981085 1.989282 -10.662282 -0.000000 -0.000000 -0.000000 -0.000001 -0.000000 -0.000000 -29.414688 -22.554219 -10.346670 51.229697 -3.021165 -10.225820 -22.995425 -2.300668 9.920479 -0.000000 0.000000 0.000000 -0.000001 -0.000001 -0.000002 3.770910 1.195949 0.380328 2.515585 1.148446 0.062321 2.496206 1.198883 0.030350 0.407235 0.837272 4.781250 8.539273 11.143541 -1.073497 0.000001 -0.000000 -0.000000 0.000001 -0.000000 -0.000000 0.000001 -0.000000 -0.000000 0.000001 -0.000000 -0.000000 0.000001 -0.000000 -0.000000 0.000001 -0.000000 -0.000000 0.000001 -0.000000 -0.000000 0.000001 -0.000000 -0.000000 0.000001 -0.000000 -0.000000 0.649401 0.743677 15.445088 -49.232202 -53.041292 -56.699425 -0.000015 -52.985111 -0.000011 -101.509056 0.375104 2.524156 35.234555 -17.219554 -17.236898 29.406847 28.726515 -29.411802 0.000001 0.000002 0.000002 0.797676 3.221918 -27.804752 0.799599 3.225517 -27.838625 -0.000001 0.000001 0.000000 0.796774 3.220222 -27.788729 0.800507 3.227230 -27.854649 0.000000 -0.000000 -0.000001 0.797688 3.221892 -27.804747 0.799599 3.225532 -27.838623 0.000002 0.000002 0.000000 2.684961 6.814118 -27.459498 0.809050 -0.835568 -28.291866 -0.000002 -0.000000 -0.000001 0.000000 0.000003 0.000001 0.376743 -1.384607 -0.671987 5.291999 95.121224 -11.413616 -0.000001 25.831321 0.000001 -50.103430 -4.169140 -9.766425 40.606643 -3.110580 26.124246 -37.849480 -44.265018 -46.874953 -0.000000 -0.000002 -0.000001 3.635332 -6.111025 61.464497 7.728590 -6.904455 96.464456 -0.000004 -0.000002 0.000002 3.635331 -6.111019 61.464497 7.728617 -6.904464 96.464462 0.000006 -0.000001 0.000003 3.635315 -6.110976 61.464490 7.728631 -6.904483 96.464462 0.000002 0.000002 -0.000003 3.635330 -6.111020 61.464504 7.728637 -6.904482 96.464462 0.000002 0.000001 0.000002 -0.000000 0.000002 0.000000 -0.000000 -0.000000 0.000000 -0.000000 -0.000000 0.000000 -0.000000 -0.000000 0.000000 -0.000000 -0.000000 0.000000 -0.000000 -0.000000 0.000000 -0.000000 -0.000000 0.000000 -0.000000 -0.000000 0.000000 -0.000000 -0.000000 0.000000 -0.000000 -0.000000 0.000000 -0.000000 -0.000000 0.000000 -0.000000 0.000001 0.000000 -0.000000 0.000001 0.000000 -0.000000 0.000001 0.000000 
